<?xml version="1.0" encoding="UTF-8"?>
<svg width="118.11" height="140" version="1.1" viewBox="0 0 31.251 37.041" xmlns="http://www.w3.org/2000/svg">
<g transform="translate(-21.578 -25.747)">
<g stroke-width=".26458">
<path d="m33.931 61.23c-.76211-.12704-2.1909-.50008-3.175-.82897l-1.7893-.59798-.0751-2.8443c-.07447-2.8207-.08047-2.8443-.72256-2.8443-.76258 0-.88976.38546-.98713 2.9918l-.06729 1.8012-2.4446-1.7503.33167-1.1149c.73341-2.4655 2.2525-4.3095 4.7614-5.7798l1.2143-.71166 1.6404.82178c.90224.45198 2.1465.89871 2.7649.99274l1.1245.17096v9.9865l-.59531-.03093c-.32742-.017013-1.2189-.13487-1.981-.26192zm4.1638-4.5466v-4.8891l1.5167-.1895c2.0491-.25602 4.0019-1.0218 5.4758-2.1471l1.2233-.93403.89362.55229c2.0316 1.2556 3.8028 3.9538 3.9277 5.9835.05588.90822-.05333 1.0598-1.66 2.3034l-1.7198 1.3313-.06768-1.6944c-.10006-2.5054-.24139-2.9346-.93386-2.8361-.55505.07893-.58992.22483-.66104 2.7664l-.07508 2.6831-1.5124.5473c-1.848.66872-3.1962 1.0003-5.0181 1.234l-1.3891.17823z" fill="#fb7825"/>
<path d="m36.621 55.569c1.86e-4 -3.347 0.0381-4.6797 0.08426-2.9616s0.04601 4.4565-3.44e-4 6.0854c-0.04634 1.6289-0.08411 0.2232-0.08392-3.1238z" fill="#2777c2"/>
<path d="m37.94 56.628c.000254-2.7649.03946-3.86.08713-2.4337s.04746 3.6886-.000449 5.0271c-.04792 1.3385-.08692.17147-.08666-2.5934zm-10.6.26458c-.000793-1.3097.04393-1.8788.09942-1.2648.05549.61407.05615 1.6856.0015 2.3812-.05467.69561-.10007.19319-.10088-1.1165zm20.107-.13229c0-1.2369.04558-1.7429.10128-1.1245.0557.61846.0557 1.6305 0 2.249-.05571.61846-.10128.11245-.10128-1.1245z" fill="#64646e"/>
<path d="m32.667 62.473c-3.8118-.86828-8.0328-3.0809-10.231-5.363-.95782-.99437-.96998-1.0335-.72463-2.3343.52036-2.7587 2.1926-5.2689 4.5388-6.813 2.723-1.7921 6.2881-2.6697 6.2881-1.5478 0 .38859-.31548.57709-1.3891.82998-3.999.94199-7.3768 4.0964-8.012 7.4822-.22592 1.2043-.05274 1.4326 2.3874 3.148l1.8543 1.3035.13229-2.466c.12046-2.2456.1796-2.466.66146-2.466.49158 0 .53449.20139.60418 2.8356l.07501 2.8356 2.174.68902c1.1957.37897 2.9754.75715 3.9549.84042l1.781.15139.07111-6.1895c.06082-5.2938.12855-6.1895.46799-6.1895s.40717.89572.46799 6.1895l.07112 6.1895 1.8021-.15108c.99116-.08309 2.8046-.48713 4.0299-.89785l2.2278-.74677.13229-2.7781c.12179-2.5576.17429-2.7781.66146-2.7781.47885 0 .54174.22049.66146 2.3189l.13229 2.3189 1.3229-.89887c2.1172-1.4386 2.6133-2.0959 2.4307-3.2209-.5307-3.2703-3.7094-6.4097-7.4858-7.3933-1.6892-.43997-2.1157-.72246-1.8181-1.204.3153-.51016 2.5708-.1136 4.4471.78188 3.1024 1.4806 5.2559 3.9333 6.1329 6.985.24336.84681.37096 1.8246.28355 2.1729-.36751 1.4643-5.4831 4.7442-9.282 5.9513-2.3587.74947-8.3729.97929-10.852.41468zm2.2526-16.581c-2.2033-.9953-4.3342-3.7287-4.883-6.2636-.10238-.47294-.29575-.8599-.42971-.8599-.31504 0-1.1819-.86888-1.5464-1.5501-.3831-.71582-.36177-2.7648.03289-3.1595.17462-.17462.51528-.3175.757-.3175.3433 0 .47008-.33721.57919-1.5405.22973-2.5335 1.7053-4.7379 3.854-5.7575 1.9804-.93976 6.0828-.9262 8.0909.02673 2.1601 1.025 3.8565 3.6674 3.8613 6.0146.0021 1.0329.08743 1.2568.47884 1.2568.26194 0 .61912.14288.79375.3175.39466.39466.41599 2.4437.03289 3.1595-.36457.6812-1.2314 1.5501-1.5464 1.5501-.13396 0-.32522.38695-.42502.8599-.0998.47294-.47448 1.4552-.83262 2.1828-1.8548 3.7684-5.6356 5.5181-8.8175 4.0808zm5.1264-1.6258c1.4277-.97016 2.6767-2.8368 3.2057-4.791.36718-1.3565.58456-1.7178 1.1962-1.9886.64871-.28715 1.3196-1.4042 1.3196-2.1971 0-.44153-.93691-.2157-1.2615.30406-.43794.70126-.80326.66796-1.1556-.10532-.27904-.61242-.38696-.63424-3.1032-.62736-2.2642.0057-3.1243-.10747-4.4016-.57935-3.0023-1.1092-3.0244-1.1116-3.7279-.40811-.35077.35077-.63776.92809-.63776 1.2829 0 .85471-.69123 1.0922-1.2567.43171-.24661-.28802-.6695-.52366-.93976-.52366-1.0552 0 .21736 2.6174 1.2836 2.64.15275.0032.5334.87493.8459 1.9371.6342 2.1557 2.0602 4.0492 3.7359 4.9608 1.3664.74334 3.5268.59511 4.8971-.336zm3.8645-11.848c-3.4e-5-1.5198-1.2037-3.6915-2.485-4.4834-2.2303-1.3784-6.2961-1.3111-8.3885.1389-1.183.81982-2.3507 2.9609-2.3507 4.3102v.92021l.61237-.57529c.78367-.73622 2.1064-.74738 3.9187-.03307 2.1782.85858 3.0952 1.0053 5.9837.95769l2.7095-.0447z" fill="#0158b4"/>
</g>
</g>
</svg>
