<?xml version="1.0" encoding="UTF-8"?>
<svg width="27.358mm" height="37.317mm" version="1.1" viewBox="0 0 27.358 37.317" xmlns="http://www.w3.org/2000/svg">
<g transform="translate(-24.35 -102.08)">
<g transform="translate(-69.866 -13.105)" stroke-width=".26458">
<path d="m94.217 135.69c0-8.0764.03361-11.38.07469-7.3422.04108 4.0382.04108 10.646 0 14.684s-.07469.73422-.07469-7.3422zm10.139 7.7413c.91521-.0518 2.344-.0514 3.175.001.83104.0523.0822.0947-1.664.0942-1.7462-.00053-2.4262-.0433-1.511-.0952zm-1.1837-16.671c2.738-.043 7.1434-.043 9.7896.00015 2.6462.0431.40603.0783-4.9782.0782-5.3843-8e-5-7.5494-.0354-4.8113-.0784zm2.1143-3.4392c1.7181-.0462 4.4565-.046 6.0854.00034 1.6289.0463.22319.0841-3.1238.0839-3.347-.00018-4.6797-.0381-2.9616-.0843zm-7.5556-2.9078c.76398-.0534 2.0141-.0534 2.7781 0 .76399.0534.13891.0972-1.3891.0972-1.528 0-2.153-.0437-1.3891-.0972z" fill="#b4cfe8"/>
<path d="m95.804 134.77c4.3e-5-7.7126.03383-10.83.07509-6.9267s.04122 10.213-7.8e-5 14.023c-.0413 3.8097-.07505.61638-.07501-7.0962zm1.585 3.3073c0-5.8936.03484-8.3046.07742-5.3578s.04258 7.7688 0 10.716c-.04258 2.9468-.07742.53578-.07742-5.3578zm1.5867 0c0-5.457.03518-7.6894.07819-4.9609.043 2.7285.043 7.1934 0 9.9219-.043 2.7285-.07819.49609-.07819-4.9609zm2.8662-16.272c.002-.72761.0534-.99386.11418-.59168.0608.40218.0592.9975-.004 1.3229-.0628.32542-.11256-.004-.11057-.73124zm4.2368-2.7107c1.2805-.0486 3.3045-.0483 4.4979.00056 1.1934.0489.14576.0887-2.3281.0884-2.4738-.00029-3.4503-.0403-2.1698-.0889zm-8.4797-.26291c.83674-.0525 2.206-.0525 3.0427 0 .83675.0525.15214.0955-1.5214.0955-1.6735 0-2.3581-.043-1.5214-.0955zm9.533-1.0576c.69561-.0547 1.7672-.054 2.3812.001.61407.0555.0449.10023-1.2648.0994-1.3097-.00079-1.8121-.0462-1.1165-.10089z" fill="#96bbe0"/>
<path d="m102.11 152.43c3.3205-.042 8.6783-.042 11.906.00011 3.2279.0421.5111.0764-6.0373.0764-6.5484-6e-5-9.1894-.0345-5.8689-.0765zm2.2309-10.316c.90951-.0517 2.3978-.0517 3.3073 0 .90951.0517.16537.0939-1.6536.0939s-2.5632-.0423-1.6536-.0939zm10.207-20.838c.001-1.0186.049-1.4029.10628-.854.0573.54895.0563 1.3824-.002 1.8521-.0585.46969-.10533.0206-.10416-.99809zm-8.7382.72863c1.4264-.0477 3.6886-.0475 5.0271.00045 1.3385.0479.17147.0869-2.5934.0867-2.7649-.00025-3.86-.0395-2.4336-.0871z" fill="#5c97d0"/>
<path d="m96.001 150.73c-.1761-.1761-.32018-.71309-.32018-1.1933 0-.81139.06174-.87313.87312-.87313.48022 0 .99362.1205 1.1409.26778.17381.17381 3.8366.24344 10.438.19844l10.17-.0693.1382-21.564h1.5871l-.1378 23.416-11.784.0688c-8.9453.0522-11.862-.008-12.105-.25135z" fill="#fa7825"/>
<path d="m121.47 135.69c0-8.2219.0336-11.585.0746-7.4745.041 4.111.041 10.838 0 14.949s-.0746.74745-.0746-7.4745zm-18.066 12.238c2.4282-.0436 6.4763-.0437 8.9958-.00018 2.5196.0435.53288.0792-4.4148.0793-4.9477 9e-5-7.0092-.0355-4.581-.0791zm2.2659-11.112c1.3461-.048 3.5487-.048 4.8948 0s.24474.0873-2.4474.0873c-2.6921 0-3.7935-.0393-2.4474-.0873zm14.456-12.503c0-1.819.0423-2.5632.0939-1.6536.0517.90951.0517 2.3978 0 3.3073-.0517.90951-.0939.16537-.0939-1.6536z" fill="#3681c6"/>
<path d="m120.14 139c6e-5-6.4029.0346-8.9844.0767-5.7367s.0421 8.4865-.00011 11.642c-.0422 3.1552-.0766.49795-.0766-5.905zm-3.2338-.85637-.0627-9.8522-17.859-.1466 8.938-.0625c6.9694-.0487 8.966.0106 9.0654.26938.07.18254.0945 4.6772.0544 9.988l-.0729 9.6561zm-11.096-6.6169c1.2804-.0486 3.3045-.0484 4.4979.00056 1.1934.0489.14576.0887-2.3281.0884-2.4738-.00029-3.4503-.0403-2.1698-.0889z" fill="#2777c3"/>
<path d="m95.115 151.86-.62462-.50568-.07534-15.039c-.04144-8.2712-.01023-15.303.06935-15.627.07958-.3234.40382-.82941.72054-1.1245.51161-.47663.92724-.53649 3.7254-.53649 2.7489 0 3.2351-.0673 3.8222-.52917.37-.29104.95432-.52916 1.2985-.52916.5319 0 .62578-.13134.62578-.87547 0-1.6874.40407-1.9027 3.5719-1.9027 3.1678 0 3.5719.21524 3.5719 1.9027 0 .78435.0778.87547.74763.87547.4439 0 .98634.2541 1.3352.62547.5161.54937.57806.86329.50914 2.5797l-.0785 1.9542h-12.171l-.0803-1.3973-.0803-1.3973-6.1895.1488v30.427l11.938.0688c9.8592.0568 11.99.006 12.239-.29439.21943-.26439.28283-4.3851.23305-15.147l-.0684-14.783-.74282-.35599c-.45712-.21907-.71048-.52571-.65875-.79728.12482-.65527 1.0704-.67387 1.8801-.037l.7121.56014v31.09l-.61237.57528c-.61043.57348-.65074.57529-12.803.57529-11.608 0-12.22-.0242-12.815-.50567zm18.293-30.927c0-.6985-.14288-1.4129-.3175-1.5875-.44616-.44616-9.2376-.44616-9.6838 0-.17463.17463-.3175.889-.3175 1.5875v1.27h10.319zm-2.6458-3.7571v-.79375h-5.0271v1.5875h5.0271zm-13.108 31.684c-.06988-.1821-.09591-5.153-.05784-11.046l.0692-10.715 10.023-.0694c7.1782-.0497 10.126.0159 10.385.23083.29466.24456.36171 2.2274.36171 10.697 0 5.7184-.0723 10.585-.1606 10.816-.14259.37158-1.3006.41851-10.327.41851-7.8948 0-10.195-.074-10.294-.33107zm19.326-10.781v-9.9219h-17.992l-.06933 9.9915-.06933 9.9915 18.13-.1392zm-14.236 5.123c-.10127-.10127-.18412-.34643-.18412-.5448 0-.28954.66545-.34608 3.3734-.28664 2.7893.0612 3.3734.14278 3.3734.47093 0 .32674-.56359.40993-3.1893.47075-1.7541.0406-3.2722-.009-3.3734-.11024zm.26251-5.2937c-.10012-.10013-.18204-.3408-.18204-.53483 0-.28196 1.0395-.35277 5.1788-.35277 4.7897 0 5.1721.0348 5.0898.46302-.0803.41799-.56624.47-4.9967.53482-2.6993.0395-4.9897-.0101-5.0898-.11024zm-.0907-5.5292c-.0862-.22456-.0966-.46835-.0232-.54177.17439-.17438 10.008-.17438 10.183 0 .0734.0734.063.31721-.0232.54177-.23506.61255-9.9011.61255-10.136 0z" fill="#0157b3"/>
</g>
</g>
</svg>
