<?xml version="1.0" encoding="UTF-8"?>
<svg width="24.215mm" height="37.159mm" version="1.1" viewBox="0 0 24.215 37.159" xmlns="http://www.w3.org/2000/svg">
<g transform="translate(-1.1786 -3.3178)">
<g transform="translate(-126.44 -27.973)" stroke-width=".26458">
<path d="m137.86 63.781c2.1909-0.19447 4.9686-0.21008 4.8548-0.02728-0.0679 0.10914-1.3964 0.17842-2.9522 0.15396s-2.4119-0.08147-1.9026-0.12668z" fill="#b0cce7"/>
<path d="m138.2 65.343c.98832-.05105 2.5361-.05067 3.4396.000794.90346.05151.0948.09327-1.7969.09281-1.8918-.000529-2.631-.04261-1.6426-.09365zm-8.4681-17.398c.002-.7276.0534-.99386.11418-.59168.0608.40218.0592.9975-.004 1.3229-.0628.32542-.11256-.0036-.11057-.73124z" fill="#93b9df"/>
<path d="m148.26 47.945c.002-.87312.0509-1.1984.10977-.72287.0589.47555.0577 1.1899-.003 1.5875-.0604.39758-.10855.0085-.10707-.86463z" fill="#5b97d0"/>
<path d="m147.64 66.418c-.35787-.24144-.69407-.47224-.7471-.5129-.053-.04065.41091-1.3922 1.031-3.0034 1.0731-2.7883 1.1201-3.0281.97548-4.9748-.1042-1.4027-.0436-2.2946.19292-2.839l.34486-.79375.58902 1.3229c.89904 2.0192.80706 3.882-.37885 7.6729-.54628 1.7462-1.075 3.2632-1.1749 3.371-.0999.10779-.47451-.0016-.83239-.243zm-15.212-1.426c-.78427-1.5166-2.242-5.5151-2.6465-7.2593-.36387-1.569-.36058-1.7962.0371-2.5652l.43634-.84379.85764 2.402c.47171 1.3211 1.4582 3.6592 2.1922 5.1957l1.3345 2.7937-.57187.36491c-.31453.2007-.71563.4495-.89133.55289-.19932.11728-.48065-.12373-.74806-.64085zm5.6977-28.496c0-.40752 2.4101-2.7074 2.8371-2.7074.49704 0 2.8975 2.2911 2.6548 2.5338-.32039.32039-5.4919.48385-5.4919.17359z" fill="#f77826"/>
<path d="m129.07 64.547c-.66596-2.1464-1.2889-4.3568-1.3844-4.9119-.33113-1.9256.61081-4.971 2.0762-6.7124.57879-.68785.62835-.9049.41583-1.8213-.1327-.57219-.24411-2.0631-.24758-3.3131-.0166-5.9939 3.0668-11.899 8.0825-15.478 1.6186-1.155 1.6987-1.1815 2.4151-.79922 1.4149.75506 3.7859 2.8197 4.973 4.3305 3.3223 4.2281 4.9203 9.8714 4.1342 14.6-.26647 1.603-.24679 1.7514.33343 2.5135 1.3478 1.7704 1.8391 3.1146 1.9403 5.3079.0898 1.9464-.005 2.4358-1.1829 6.0842-.89748 2.7807-1.4098 3.9925-1.7125 4.0508-.41507.07994-2.5222-1.1237-2.9008-1.657-.10082-.142-.0592-.40774.0925-.59052.21718-.26169.49141-.20825 1.29.25139.55783.32105 1.0679.52614 1.1336.45575.3974-.42625 2.2974-7.0525 2.2974-8.0122 0-1.3153-.53612-3.3002-1.1144-4.1258-.36714-.52416-.4457-.39991-1.4074 2.2259-.5602 1.5296-1.6213 3.9995-2.3579 5.4888l-1.3394 2.7078-8.4558.1605-2.5458 1.5734c-1.4002.86537-2.721 1.5734-2.935 1.5734-.27022 0-.75933-1.193-1.6-3.9026zm3.9574 1.3504c.83957-.53061 1.5753-1.006 1.6349-1.0565.0596-.05046-.52545-1.4266-1.3002-3.058s-1.7952-4.0433-2.2678-5.3597l-.85917-2.3934-.68235 1.4552c-1.0285 2.1934-.94235 4.0017.38481 8.0811.58977 1.8128 1.1828 3.296 1.3178 3.296.135 0 .93238-.43414 1.772-.96475zm11.511-5.5837c3.8218-8.0374 4.5156-11.681 3.2117-16.867-.42267-1.6812-2.0412-5.2142-2.602-5.6795-.23237-.19285-1.1266-.18598-2.9503.02267-2.19.25057-3.0052.23041-4.9981-.12358-2.7998-.49732-2.5432-.65917-4.1313 2.6055-2.531 5.2029-2.4028 9.8188.463 16.665l.94311 2.253h3.1161c2.2628 0 3.1958.09592 3.4068.35025.58886.70952-.23816.97266-3.0569.97266-1.4989 0-2.7252.07263-2.7252.1614 0 .08877.37378.86268.83062 1.7198l.83061 1.5584h5.9319zm-6.8359-12.872c-.76141-.76141-.89959-1.0859-.89959-2.1125 0-2.3332 2.3747-3.7744 4.4504-2.701 2.8009 1.4484 1.7272 5.7131-1.4383 5.7131-1.0266 0-1.3511-.13817-2.1125-.89958zm3.4781-.80818c.72027-.72026.79054-1.1326.35568-2.0871-.29431-.64594-1.2362-1.2323-1.9797-1.2323-.65552 0-1.6953 1.2398-1.6953 2.0214 0 1.7266 2.078 2.5391 3.3193 1.2979zm2.3692-10.185c.48577-.19618.43153-.30572-.66146-1.3358-.65484-.61714-1.6362-1.4208-2.1807-1.7859l-.9901-.66378-1.3996 1.0797c-.76975.59386-1.6815 1.3799-2.0261 1.7467-.65197.69399-.6152.75295.64335 1.0314.92925.20562 6.0653.14939 6.6146-.07242z" fill="#0158b5"/>
</g>
</g>
</svg>
